<svg
  width="100%"
  height="100%"
  fill="#273C49"
  viewBox="0 0 99 20"
  xmlns="http://www.w3.org/2000/svg"
>
  <path
    d="M7.56763 17.3756C7.18436 17.1839 6.77283 16.9832 6.38047 16.7627C4.54083 15.8222 3.05578 14.3104 2.14829 12.4543C2.12908 12.4063 2.10984 12.3779 2.08102 12.3107C2.79508 12.5302 3.55402 12.5599 4.28302 12.3966C4.15864 12.3774 4.03386 12.3678 3.90948 12.3486C3.23661 12.2776 2.57987 12.0966 1.96572 11.8126C1.89523 11.7741 1.83594 11.718 1.79339 11.6498C1.39714 10.8783 1.14408 10.0412 1.04655 9.17933C0.924912 8.22288 0.957157 7.25311 1.1421 6.30686C1.17092 6.19208 1.19979 6.08641 1.219 5.97163L1.2569 5.85685C1.28419 5.90898 1.30672 5.96348 1.32418 6.01967C1.5113 6.4959 1.78385 6.9339 2.12854 7.31205C2.47599 7.69055 2.93 7.95497 3.43064 8.07049C3.46906 8.0801 3.49781 8.0801 3.55494 8.0897C3.38253 7.95571 3.22931 7.83133 3.0761 7.71655C2.2957 7.10097 1.77053 6.2185 1.60168 5.23897C1.59207 5.20132 1.59207 5.16185 1.60168 5.1242C1.89288 4.10435 2.38092 3.15135 3.03821 2.31897C3.56219 1.65185 4.28751 1.17164 5.10627 0.949728C5.63829 0.804571 6.19859 0.797959 6.73389 0.930517C6.81394 0.946646 6.88558 0.990736 6.93609 1.0549C7.17639 1.34885 7.34083 1.69733 7.41493 2.0697C7.55507 2.62069 7.62894 3.18645 7.63491 3.75496C7.65808 5.15494 7.51671 6.55281 7.21372 7.91981C7.20262 7.971 7.17176 8.01572 7.1278 8.0442C6.88864 8.16858 6.64888 8.27375 6.40972 8.38903C6.37816 8.39916 6.34897 8.41549 6.3238 8.43707C6.62715 8.47621 6.93547 8.44348 7.22384 8.34151V9.39473C7.22384 9.76789 7.19497 10.1415 7.20458 10.5152C7.21419 11.2736 7.20458 12.0376 7.25211 12.7941C7.28093 13.2729 7.37655 13.7421 7.43419 14.2204C7.44204 14.2786 7.4354 14.3378 7.41493 14.3929C7.30976 14.6801 7.1945 14.9769 7.10854 15.2737C7.52326 14.9564 7.88795 14.5787 8.19053 14.1532C8.143 14.3828 8.09502 14.6032 8.05659 14.8328C7.95217 15.5546 8.07589 16.2911 8.41051 16.9392C8.51592 17.1184 8.64485 17.2826 8.7938 17.4276C9.27264 17.9161 9.75151 18.3853 10.2298 18.8636C10.3931 19.0269 10.5465 19.1996 10.6894 19.3809C10.7649 19.4963 10.8139 19.627 10.833 19.7636C10.8618 19.9361 10.747 20.022 10.5746 19.9745C10.4399 19.9385 10.3108 19.8837 10.1913 19.8117C10.2371 19.8033 10.2821 19.7904 10.3254 19.7733C10.4978 19.6969 10.4977 19.4668 10.3349 19.3136C10.1529 19.1508 9.95165 18.988 9.77013 18.8156C8.70349 17.8708 7.77799 16.7778 7.02201 15.57C6.20016 14.2335 5.68054 12.7335 5.49957 11.175C5.32558 9.80017 5.34825 8.40751 5.56684 7.03901C5.68162 6.3018 5.83485 5.57269 5.97137 4.837C5.98963 4.76847 5.99418 4.69702 5.98483 4.62673C5.97547 4.55643 5.95235 4.48867 5.91681 4.4273C5.88127 4.36593 5.83401 4.31217 5.77769 4.26907C5.72136 4.22598 5.65709 4.1944 5.58857 4.17614C5.49454 4.14569 5.39241 4.15253 5.30329 4.19526C5.21417 4.23798 5.14487 4.31332 5.10973 4.4057C5.11463 4.42785 5.11463 4.4508 5.10973 4.47295C5.00456 5.04734 4.8893 5.63134 4.80334 6.19613C4.65819 7.12741 4.58447 8.06844 4.58287 9.01096C4.5732 10.6626 4.86862 12.3019 5.45414 13.8463C5.95005 15.0899 6.64533 16.2444 7.51257 17.2643C7.52271 17.3049 7.54145 17.3429 7.56763 17.3756Z"
  />
  <path
    d="M12.8767 12.8659C13.1689 12.8961 13.4613 12.8102 13.6907 12.6267C13.8254 12.4339 13.8897 12.2006 13.8727 11.9659V6.61439C13.6707 6.37697 13.4566 6.15017 13.2311 5.9349C13.1347 5.8587 13.0183 5.81215 12.8959 5.80092V5.51324H15.2893L19.1762 10.2328H19.2338V6.92077C19.2681 6.77348 19.2657 6.62001 19.2267 6.47389C19.1877 6.32776 19.1134 6.19345 19.0104 6.08279C18.9073 5.97212 18.7786 5.88849 18.6356 5.83925C18.4926 5.79001 18.3397 5.77667 18.1903 5.80041V5.51324H20.6222V5.80041C20.3697 5.81848 20.1261 5.9008 19.9144 6.03955C19.8411 6.13178 19.7872 6.23784 19.756 6.35139C19.7247 6.46493 19.7167 6.58362 19.7324 6.70034V13.3543H19.4164L14.447 7.3131H14.3702V11.7455C14.3501 11.9997 14.3997 12.2546 14.5138 12.4826C14.628 12.6139 14.7717 12.7163 14.9332 12.7812C15.0946 12.8462 15.2692 12.8719 15.4425 12.8563V13.1434H12.8863V12.8659H12.8767Z"
  />
  <path
    d="M21.8282 8.59665C22.0635 8.34707 22.3477 8.14858 22.663 8.01349C22.9783 7.87841 23.318 7.80963 23.6611 7.81144C24.0041 7.81324 24.3431 7.88558 24.657 8.02397C24.9708 8.16235 25.2529 8.36383 25.4856 8.61586C25.9641 9.15215 26.2208 9.85037 26.2035 10.5689C26.2166 11.2821 25.9644 11.9747 25.4957 12.5124C25.2707 12.7781 24.9884 12.9894 24.67 13.1304C24.3516 13.2714 24.0054 13.3384 23.6574 13.3263C23.3133 13.3336 22.9717 13.2664 22.656 13.1292C22.3404 12.992 22.0581 12.7881 21.8287 12.5316C21.3649 11.9809 21.1106 11.2841 21.1106 10.5641C21.1106 9.84415 21.3644 9.14733 21.8282 8.59665ZM22.8899 12.2252C23.0143 12.7136 23.2726 12.9623 23.6559 12.9623C23.823 12.9681 23.9867 12.9146 24.1181 12.8113C24.2495 12.7079 24.3401 12.5613 24.3738 12.3976C24.5127 11.7985 24.5707 11.1834 24.5462 10.5689C24.5736 9.95378 24.5123 9.33791 24.3642 8.74024C24.3325 8.57907 24.2452 8.43417 24.1174 8.33093C23.9897 8.22768 23.8297 8.17266 23.6655 8.1755C23.2828 8.1755 23.0239 8.42425 22.8995 8.91264C22.7961 9.45832 22.7544 10.0139 22.7752 10.5689C22.7469 11.1237 22.7858 11.6798 22.8909 12.2252H22.8899Z"
  />
  <path
    d="M26.6877 12.8859C26.8377 12.8802 26.9833 12.8339 27.1089 12.7519C27.1805 12.6795 27.2349 12.5919 27.2681 12.4956C27.3012 12.3994 27.3123 12.2969 27.3006 12.1957V8.87425C27.3215 8.70163 27.2771 8.52742 27.1762 8.38582C27.0355 8.2785 26.8646 8.21818 26.6877 8.2134V7.94541H28.8326V8.75948C28.9899 8.54611 29.1732 8.35316 29.3782 8.18508C29.6895 7.94091 30.0742 7.80922 30.4699 7.81142C30.8473 7.78812 31.2208 7.90017 31.5231 8.12744C31.6949 8.29491 31.8287 8.49735 31.9154 8.72105H31.9918C32.1685 8.49654 32.3746 8.29688 32.6046 8.12744C32.896 7.91366 33.2484 7.79947 33.6098 7.80181C33.9957 7.79714 34.3701 7.93321 34.663 8.18458C34.8259 8.33782 34.9519 8.526 35.0315 8.73497C35.1111 8.94394 35.1423 9.16825 35.1226 9.39101V12.2347C35.1226 12.493 35.1611 12.6655 35.247 12.7327C35.3805 12.8221 35.5365 12.8719 35.697 12.8763V13.1443H33.0172V12.8763C33.1725 12.8688 33.3222 12.8161 33.448 12.7246C33.5505 12.5838 33.5951 12.4089 33.5724 12.2362V9.50578C33.5845 9.27167 33.5384 9.03822 33.4384 8.82622C33.3875 8.74233 33.3134 8.67506 33.2249 8.6326C33.1365 8.59013 33.0376 8.57431 32.9403 8.58705C32.7106 8.60009 32.4931 8.69519 32.3275 8.85504C32.1167 9.03706 32.0019 9.16145 32.0019 9.22819V12.2539C31.9801 12.4222 32.021 12.5926 32.1167 12.7327C32.2379 12.8209 32.3795 12.8769 32.5283 12.8955V13.1635H29.8859V12.8955C30.0365 12.8858 30.1818 12.8362 30.307 12.7519C30.4121 12.6086 30.4568 12.4298 30.4314 12.2539V9.50629C30.4439 9.27314 30.4013 9.04033 30.307 8.82672C30.2579 8.74066 30.1844 8.67109 30.0957 8.62681C30.0071 8.58253 29.9073 8.56553 29.809 8.57795C29.6882 8.58024 29.5692 8.60685 29.4589 8.65619C29.3487 8.70554 29.2495 8.77661 29.1673 8.86515C28.9651 9.05678 28.8706 9.17156 28.8706 9.21909V12.2448C28.8516 12.4116 28.8886 12.58 28.9757 12.7236C29.096 12.8136 29.2381 12.8698 29.3873 12.8864V13.1544H26.6877V12.8859Z"
  />
  <path
    d="M36.9325 10.8842C37.6575 10.4887 38.4296 10.1864 39.2303 9.98425V9.16066C39.2543 8.89726 39.1791 8.6344 39.0195 8.42353C38.9172 8.33225 38.7967 8.26373 38.666 8.22251C38.5353 8.18128 38.3973 8.16829 38.2611 8.18439C38.0878 8.17697 37.9157 8.21664 37.7631 8.29916C37.7072 8.3239 37.6595 8.36404 37.6256 8.4149C37.5917 8.46575 37.5729 8.52521 37.5715 8.58632C37.5725 8.6253 37.5789 8.66394 37.5907 8.70109C37.6099 8.72991 37.6292 8.75872 37.658 8.79664L37.7252 8.87298C37.7757 8.93753 37.8175 9.00841 37.8496 9.08381C37.8802 9.15989 37.8964 9.24096 37.8976 9.32295C37.9025 9.41651 37.8861 9.50996 37.8496 9.59624C37.8131 9.68252 37.7574 9.75935 37.6868 9.82094C37.5463 9.93535 37.3699 9.99642 37.1888 9.99335C36.9865 9.99771 36.7893 9.92977 36.6327 9.80173C36.5544 9.73278 36.493 9.64678 36.4532 9.55036C36.4134 9.45395 36.3963 9.34968 36.4031 9.2456C36.4013 9.03505 36.4576 8.82807 36.5657 8.64738C36.6738 8.46669 36.8295 8.31928 37.0159 8.2213C37.4726 7.95711 37.9936 7.82495 38.521 7.83958C39.0807 7.82002 39.6355 7.94893 40.1292 8.2132C40.3532 8.36121 40.5318 8.56842 40.645 8.81182C40.7583 9.05522 40.8018 9.32526 40.7708 9.59192V12.3301C40.768 12.4061 40.7918 12.4806 40.8381 12.541C40.8525 12.5665 40.8733 12.5879 40.8985 12.603C40.9236 12.618 40.9523 12.6263 40.9816 12.6269C41.0219 12.629 41.0619 12.6189 41.0964 12.5981C41.1571 12.5618 41.212 12.5167 41.2592 12.4641L41.4316 12.7032C41.2372 12.9435 40.983 13.1284 40.6945 13.2392C40.5236 13.3048 40.3417 13.3373 40.1586 13.3347C40.021 13.3464 39.8827 13.3257 39.7547 13.2741C39.6266 13.2226 39.5125 13.1417 39.4214 13.0379C39.321 12.892 39.2554 12.7249 39.2298 12.5496C38.9348 12.8527 38.5704 13.0795 38.1681 13.2103C37.9399 13.2878 37.7012 13.3298 37.4603 13.3347C37.1488 13.3339 36.8465 13.2295 36.6008 13.0379C36.4637 12.9292 36.3551 12.7887 36.2846 12.6285C36.2142 12.4683 36.1838 12.2934 36.1963 12.1188C36.1962 11.8657 36.2646 11.6174 36.3942 11.4C36.5238 11.1827 36.7098 11.0044 36.9325 10.8842ZM38.9042 12.3392C39.017 12.2451 39.1226 12.1427 39.2202 12.0328V10.3766C38.9379 10.4462 38.6692 10.5627 38.4254 10.7214C38.2508 10.8296 38.1066 10.9803 38.0061 11.1594C37.9057 11.3386 37.8523 11.5403 37.8511 11.7457C37.8375 11.9487 37.8988 12.1496 38.0235 12.3104C38.0686 12.3669 38.1252 12.4132 38.1895 12.4463C38.2538 12.4793 38.3244 12.4983 38.3966 12.502C38.5796 12.5074 38.7585 12.45 38.9042 12.3392Z"
  />
  <path
    d="M42.4912 8.59512C42.6689 8.35589 42.8999 8.16129 43.1657 8.02668C43.4316 7.89208 43.7251 7.82117 44.0231 7.81956C44.3036 7.81618 44.5793 7.89263 44.8179 8.04C45.0171 8.17504 45.1973 8.33605 45.3538 8.51878V6.44136C45.3538 6.15419 45.2962 5.98179 45.191 5.91505C44.9767 5.82326 44.7445 5.78076 44.5115 5.79068V5.52222H46.9434V12.0229C46.928 12.1965 46.9755 12.3699 47.0773 12.5113C47.2247 12.6257 47.4082 12.6835 47.5945 12.6741V12.9325C46.9626 12.9997 46.551 13.0376 46.369 13.0761C46.187 13.1049 45.8635 13.1908 45.4019 13.3152V12.5685C45.2286 12.7552 45.0324 12.9193 44.8179 13.0568C44.5482 13.2259 44.2363 13.3155 43.918 13.3152C43.6414 13.3149 43.3685 13.2518 43.1198 13.1308C42.8711 13.0098 42.6531 12.8339 42.4821 12.6165C42.0485 12.0795 41.8301 11.4005 41.8694 10.7115C41.818 9.95447 42.0385 9.20399 42.4912 8.59512ZM45.0666 12.348C45.2581 12.1279 45.3538 11.9747 45.3538 11.8885V9.14114C45.3538 9.04559 45.2679 8.91161 45.1051 8.7296C45.0214 8.63914 44.9188 8.56822 44.8046 8.52191C44.6904 8.4756 44.5674 8.45502 44.4443 8.46165C44.0398 8.46165 43.7739 8.73921 43.6212 9.29434C43.5329 9.70959 43.4943 10.1339 43.5064 10.5583C43.4928 10.9984 43.5313 11.4387 43.6212 11.8698C43.7552 12.4057 44.0257 12.6741 44.4064 12.6741C44.5335 12.6705 44.6583 12.6394 44.7722 12.583C44.8862 12.5267 44.9866 12.4468 45.0666 12.348Z"
  />
  <path
    d="M50.857 12.8659C51.0919 12.8711 51.3256 12.8322 51.5461 12.7511C51.6641 12.6844 51.7597 12.5843 51.8211 12.4634C51.8824 12.3425 51.9067 12.2062 51.8909 12.0716V6.59518C51.908 6.46386 51.8863 6.3304 51.8284 6.21128C51.7706 6.09215 51.6791 5.99256 51.5653 5.92478C51.3402 5.83602 51.0994 5.79371 50.8575 5.80041V5.51324H54.801V5.80041C54.553 5.79801 54.3066 5.84014 54.0735 5.92478C53.9584 5.99174 53.8654 6.09085 53.8058 6.20994C53.7463 6.32904 53.7228 6.46293 53.7383 6.59518V12.0711C53.7214 12.1908 53.7374 12.3129 53.7846 12.4243C53.8318 12.5356 53.9084 12.632 54.0063 12.7031C54.2523 12.8263 54.5264 12.8824 54.801 12.8659V13.153H50.8474V12.8659H50.857Z"
  />
  <path
    d="M55.2546 12.8854C55.421 12.8722 55.5802 12.8124 55.7142 12.713C55.8194 12.627 55.8578 12.4546 55.8578 12.1958V8.87309C55.875 8.7051 55.8345 8.53626 55.743 8.39431C55.6063 8.28526 55.4389 8.22163 55.2642 8.2123V7.94434H57.4089V8.75832C57.5912 8.48832 57.8255 8.25733 58.098 8.07883C58.3738 7.89861 58.6973 7.80527 59.0268 7.81087C59.4374 7.78484 59.8421 7.91873 60.1562 8.18449C60.3094 8.36596 60.4241 8.57658 60.4937 8.80363C60.5632 9.03068 60.586 9.26947 60.5607 9.50557V12.2357C60.5607 12.494 60.6087 12.6568 60.6947 12.7241C60.8213 12.8139 60.9705 12.8664 61.1254 12.8758V13.1437H58.4459V12.8758C58.5938 12.8593 58.7347 12.804 58.8544 12.7155C58.9515 12.576 58.9925 12.4051 58.9691 12.2367V9.50658C58.977 9.31216 58.9512 9.11784 58.8928 8.93224C58.8569 8.82366 58.7853 8.73045 58.6896 8.66782C58.5939 8.6052 58.4798 8.57686 58.366 8.58744C58.1672 8.5881 57.976 8.66334 57.8301 8.79826C57.6843 8.92196 57.5583 9.06722 57.4564 9.22902V12.2544C57.4347 12.4227 57.4755 12.5931 57.5712 12.7332C57.6924 12.8214 57.834 12.8774 57.9827 12.896V13.1639H55.2637V12.8864L55.2546 12.8854Z"
  />
  <path
    d="M61.6407 11.4402H61.9567C62.0177 11.886 62.239 12.2943 62.5791 12.5889C62.8441 12.7983 63.1701 12.916 63.5078 12.9241C63.738 12.9417 63.9666 12.8735 64.1494 12.7324C64.2166 12.6646 64.2693 12.5837 64.304 12.4948C64.3388 12.4058 64.355 12.3107 64.3516 12.2152C64.3522 12.1185 64.3329 12.0228 64.295 11.9338C64.2571 11.8449 64.2013 11.7646 64.1312 11.698C64.0145 11.5948 63.882 11.5108 63.7389 11.4493L62.8966 11.0377C62.5304 10.8778 62.206 10.6356 61.9486 10.3299C61.7532 10.0709 61.6489 9.7545 61.6518 9.43001C61.6488 9.22054 61.6878 9.01259 61.7668 8.81855C61.8457 8.62451 61.963 8.44835 62.1114 8.30055C62.2802 8.13602 62.4815 8.00848 62.7023 7.92604C62.9232 7.84361 63.1587 7.80809 63.3941 7.82176C63.6534 7.82511 63.9111 7.86372 64.16 7.93653C64.3223 7.98958 64.4889 8.02799 64.658 8.0513C64.6922 8.05524 64.7268 8.05216 64.7598 8.04225C64.7927 8.03234 64.8233 8.0158 64.8496 7.99366C64.8911 7.94567 64.9235 7.8905 64.9452 7.83086H65.1939V9.46793H64.9068C64.8221 9.1178 64.6396 8.799 64.3804 8.54878C64.1528 8.32632 63.8468 8.20244 63.5285 8.20398C63.4259 8.19435 63.3224 8.20835 63.226 8.24489C63.1296 8.28143 63.0429 8.33955 62.9724 8.41481C62.857 8.53636 62.792 8.69715 62.7904 8.86477C62.7963 9.01075 62.854 9.14987 62.9532 9.2571C63.122 9.43876 63.3276 9.58234 63.5563 9.67825L64.1787 9.97502C64.4843 10.1102 64.7674 10.291 65.0185 10.5114C65.1627 10.6536 65.2761 10.8238 65.3519 11.0115C65.4276 11.1993 65.464 11.4006 65.4588 11.603C65.4551 12.0357 65.2914 12.4517 64.9993 12.7709C64.8275 12.9599 64.615 13.1072 64.3777 13.2018C64.1405 13.2963 63.8848 13.3355 63.6302 13.3164C63.4758 13.3146 63.322 13.2985 63.1706 13.2684C62.9787 13.2275 62.7901 13.1731 62.6059 13.1056L62.4143 13.0383C62.347 13.0095 62.2995 12.9999 62.2803 12.9903C62.2611 12.9903 62.2418 12.9807 62.213 12.9807C62.182 12.9812 62.1515 12.9883 62.1234 13.0014C62.0954 13.0146 62.0705 13.0335 62.0503 13.057C61.9882 13.1324 61.9371 13.2161 61.8986 13.3058H61.6306V11.4402H61.6407Z"
  />
  <path
    d="M68.0642 7.95449V11.7837C68.053 11.9542 68.0825 12.1249 68.1502 12.2817C68.2064 12.3786 68.29 12.4566 68.3905 12.506C68.491 12.5554 68.6039 12.5739 68.7149 12.5593C68.9039 12.5566 69.0876 12.4964 69.2417 12.3869C69.3755 12.293 69.5005 12.1872 69.6153 12.0709V8.87364C69.6343 8.69526 69.5827 8.51656 69.4717 8.37564C69.3071 8.25945 69.1082 8.2021 68.907 8.21284V7.94489H71.1568V12.0138C71.1414 12.1874 71.189 12.3607 71.2908 12.5022C71.4382 12.6165 71.6217 12.6743 71.808 12.665V12.9233C71.109 12.9907 70.6686 13.0386 70.487 13.0669C70.192 13.125 69.9011 13.2017 69.6158 13.2964V12.5689C69.4103 12.755 69.1856 12.9187 68.9454 13.0573C68.6511 13.2259 68.318 13.315 67.9788 13.3156C67.6121 13.3141 67.2558 13.193 66.9641 12.9708C66.7923 12.8179 66.6599 12.6257 66.5783 12.4107C66.4966 12.1957 66.468 11.9641 66.4949 11.7357V8.87364C66.5171 8.70837 66.4762 8.54079 66.3801 8.40446C66.2483 8.30613 66.0933 8.24345 65.9302 8.22245V7.95449H68.0642Z"
  />
  <path
    d="M72.2366 12.8851C72.3981 12.8788 72.5543 12.8261 72.6866 12.7335C72.738 12.6713 72.7764 12.5994 72.7994 12.5221C72.8225 12.4448 72.8297 12.3637 72.8206 12.2835L72.8302 11.9483V8.87287C72.8511 8.70026 72.8068 8.52605 72.7058 8.38448C72.5695 8.27649 72.401 8.21707 72.2271 8.21562V7.94766H74.3717V8.83799C74.5756 8.56056 74.8134 8.3097 75.0795 8.09125C75.3118 7.90962 75.5987 7.81181 75.8935 7.81369C76.1228 7.8151 76.3451 7.89263 76.5255 8.03412C76.6212 8.1119 76.6965 8.21187 76.7449 8.32534C76.7933 8.43881 76.8132 8.56237 76.8031 8.6853C76.8098 8.88663 76.7372 9.08254 76.6008 9.23082C76.5369 9.30058 76.4586 9.35557 76.3713 9.39198C76.2839 9.42839 76.1898 9.44534 76.0952 9.44165C75.9724 9.43884 75.852 9.40701 75.7438 9.34875C75.6357 9.29049 75.5428 9.20746 75.4729 9.10645C75.3005 8.88602 75.1761 8.77125 75.1089 8.77125C75.0167 8.78124 74.9278 8.81126 74.8484 8.85921C74.769 8.90715 74.701 8.97186 74.6493 9.04881C74.4818 9.27854 74.4005 9.55992 74.4197 9.84358V11.9786C74.3861 12.2236 74.444 12.4725 74.5825 12.6773C74.7776 12.7992 75.0037 12.8624 75.2337 12.8594V13.1273H72.2271V12.8882L72.2366 12.8851Z"
  />
  <path
    d="M78.0704 10.8842C78.7954 10.4887 79.5675 10.1863 80.3683 9.98425V9.16066C80.3922 8.89726 80.3171 8.6344 80.1574 8.42353C80.0539 8.3342 79.9333 8.26693 79.8029 8.22581C79.6725 8.1847 79.5351 8.1706 79.3991 8.18439C79.2257 8.17697 79.0537 8.21664 78.9011 8.29916C78.8452 8.3239 78.7975 8.36404 78.7635 8.4149C78.7296 8.46575 78.7108 8.52521 78.7094 8.58632C78.7104 8.6253 78.7168 8.66394 78.7287 8.70109C78.7479 8.72991 78.7671 8.75872 78.7959 8.79664L78.8632 8.87298C78.9136 8.93753 78.9555 9.00841 78.9875 9.08381C79.0181 9.15989 79.0344 9.24096 79.0356 9.32295C79.0405 9.41651 79.0241 9.50996 78.9875 9.59624C78.951 9.68252 78.8953 9.75935 78.8247 9.82094C78.6865 9.93933 78.5086 10.0009 78.3267 9.99335C78.1245 9.99775 77.9272 9.92981 77.7706 9.80173C77.6922 9.73283 77.6308 9.64686 77.5909 9.55043C77.551 9.45401 77.5338 9.34972 77.5406 9.2456C77.5388 9.03505 77.595 8.82807 77.7031 8.64738C77.8112 8.46669 77.967 8.31928 78.1533 8.2213C78.6101 7.95701 79.1314 7.82486 79.659 7.83958C80.2186 7.82002 80.7735 7.94893 81.2672 8.2132C81.4912 8.36121 81.6697 8.56842 81.783 8.81182C81.8962 9.05522 81.9398 9.32526 81.9088 9.59192V12.3301C81.9059 12.4061 81.9297 12.4807 81.976 12.541C81.9904 12.5665 82.0112 12.5879 82.0364 12.603C82.0616 12.618 82.0903 12.6263 82.1196 12.6269C82.1599 12.629 82.1998 12.6189 82.2344 12.5981C82.295 12.5618 82.3499 12.5167 82.3971 12.4641L82.5695 12.7032C82.3752 12.9435 82.1209 13.1284 81.8324 13.2392C81.6615 13.3048 81.4796 13.3373 81.2965 13.3347C81.159 13.3464 81.0206 13.3257 80.8926 13.2741C80.7646 13.2226 80.6504 13.1417 80.5594 13.0379C80.4589 12.892 80.3933 12.7249 80.3678 12.5496C80.0727 12.8527 79.7083 13.0795 79.3061 13.2103C79.0779 13.2878 78.8392 13.3298 78.5982 13.3347C78.2868 13.3339 77.9844 13.2295 77.7387 13.0379C77.6016 12.9292 77.4931 12.7887 77.4226 12.6285C77.3521 12.4683 77.3218 12.2934 77.3343 12.1188C77.3321 11.8653 77.3997 11.6161 77.5295 11.3984C77.6593 11.1807 77.8464 11.0028 78.0704 10.8842ZM80.0422 12.3392C80.1549 12.2451 80.2606 12.1427 80.3582 12.0328V10.3766C80.0752 10.4443 79.8062 10.561 79.5634 10.7214C79.3888 10.8296 79.2445 10.9803 79.1441 11.1594C79.0436 11.3386 78.9903 11.5403 78.9891 11.7457C78.9754 11.9487 79.0367 12.1497 79.1615 12.3104C79.2066 12.3669 79.2631 12.4132 79.3274 12.4463C79.3918 12.4793 79.4624 12.4983 79.5346 12.502C79.7176 12.5074 79.8964 12.45 80.0422 12.3392Z"
  />
  <path
    d="M82.8921 12.8854C83.0584 12.8721 83.2177 12.8124 83.3517 12.713C83.4568 12.627 83.4952 12.4546 83.4952 12.1958V8.87309C83.5125 8.7051 83.472 8.53624 83.3805 8.39431C83.2437 8.28526 83.0763 8.22163 82.9017 8.2123V7.94434H85.0464V8.75832C85.2287 8.48834 85.463 8.25735 85.7355 8.07883C86.0113 7.89861 86.3348 7.80527 86.6642 7.81087C87.0748 7.78484 87.4796 7.91873 87.7937 8.18449C87.9468 8.36596 88.0616 8.57658 88.1311 8.80363C88.2007 9.03068 88.2234 9.26947 88.1981 9.50557V12.2357C88.1981 12.494 88.2462 12.6568 88.3321 12.7241C88.4587 12.8139 88.6079 12.8664 88.7629 12.8758V13.1437H86.1111V12.8758C86.2603 12.8591 86.4024 12.8029 86.5227 12.713C86.6198 12.5735 86.6608 12.4025 86.6374 12.2342V9.50405C86.6452 9.30961 86.6192 9.11528 86.5606 8.92972C86.5247 8.82123 86.4532 8.72808 86.3576 8.66546C86.262 8.60285 86.1481 8.57445 86.0343 8.58491C85.8355 8.58557 85.6443 8.66081 85.4984 8.79574C85.3526 8.91942 85.2266 9.06468 85.1247 9.22649V12.2519C85.1029 12.4201 85.1438 12.5906 85.2395 12.7307C85.3607 12.8188 85.5023 12.8748 85.651 12.8934V13.1614H82.9321V12.8838L82.8921 12.8854Z"
  />
  <path
    d="M93.1337 8.15545C93.2902 8.24573 93.4203 8.37544 93.511 8.53165C93.6017 8.68786 93.65 8.86512 93.6509 9.04577C93.6507 9.14163 93.6314 9.23648 93.594 9.32477C93.5567 9.41305 93.5021 9.49298 93.4334 9.55986C93.3648 9.62675 93.2834 9.67923 93.1942 9.71423C93.1049 9.74923 93.0096 9.76605 92.9138 9.76369C92.8183 9.76826 92.723 9.75183 92.6345 9.71557C92.5461 9.6793 92.4667 9.62408 92.4019 9.5538C92.3371 9.48351 92.2885 9.39988 92.2596 9.30878C92.2306 9.21769 92.222 9.12135 92.2343 9.02656C92.2336 8.97852 92.2368 8.93049 92.2439 8.88297C92.2439 8.81573 92.2535 8.749 92.2535 8.67215C92.2614 8.59798 92.2536 8.52298 92.2305 8.45206C92.2074 8.38114 92.1696 8.3159 92.1195 8.26061C92.028 8.18499 91.9126 8.14432 91.7939 8.14584C91.6239 8.14718 91.4589 8.204 91.3241 8.30767C91.1893 8.41134 91.0921 8.55618 91.0472 8.72018C90.8951 9.14376 90.8206 9.59126 90.8272 10.0413C90.8073 10.6616 90.9526 11.2762 91.2484 11.8219C91.3513 12.0348 91.5115 12.2147 91.711 12.3416C91.9105 12.4684 92.1415 12.537 92.3779 12.5398C92.6473 12.5473 92.9132 12.4771 93.1438 12.3376C93.3146 12.2178 93.4691 12.0762 93.6034 11.9164L93.8142 12.1081C93.4972 12.5793 93.0475 12.9458 92.5219 13.1612C92.2555 13.2611 91.9733 13.3124 91.6887 13.3129C91.3531 13.323 91.0194 13.2587 90.7115 13.1246C90.4036 12.9905 90.1293 12.79 89.9081 12.5373C89.4468 12.0155 89.2005 11.3381 89.219 10.6419C89.2001 9.90403 89.4599 9.18615 89.9465 8.6312C90.1898 8.35682 90.4911 8.14002 90.8285 7.99652C91.166 7.85302 91.5312 7.78642 91.8976 7.80154C92.335 7.79848 92.7641 7.92134 93.1337 8.15545Z"
  />
  <path
    d="M94.941 8.53864C95.154 8.30775 95.4133 8.12444 95.7021 8.00073C95.9908 7.87701 96.3024 7.81567 96.6165 7.82072C96.9883 7.81957 97.3531 7.92236 97.6696 8.1175C97.9964 8.30901 98.26 8.59196 98.428 8.93148C98.5755 9.25222 98.6693 9.59502 98.7055 9.94617C98.7292 10.095 98.742 10.2454 98.744 10.3961H95.8622C95.8784 10.7972 95.9527 11.1938 96.0826 11.5736C96.1429 11.838 96.2913 12.0741 96.5036 12.2429C96.7159 12.4117 96.9793 12.5032 97.2505 12.5024C97.5228 12.4996 97.7877 12.4127 98.0088 12.2536C98.2052 12.1078 98.3849 11.9408 98.5447 11.7556L98.8031 11.9184C98.522 12.4256 98.1008 12.8411 97.5897 13.1151C97.2686 13.262 96.9184 13.3341 96.5654 13.326C95.9799 13.3131 95.4215 13.0766 95.0047 12.6652C94.7414 12.3875 94.5403 12.0569 94.4148 11.6953C94.2893 11.3338 94.2424 10.9496 94.2772 10.5685C94.2427 10.2028 94.2839 9.8338 94.3981 9.4846C94.5123 9.13539 94.6971 8.81341 94.941 8.53864ZM97.344 9.96488C97.361 9.49403 97.3099 9.02321 97.1923 8.56696C97.1562 8.44556 97.0794 8.3403 96.9748 8.26886C96.8702 8.19741 96.7442 8.16414 96.618 8.17463C96.4799 8.17001 96.3445 8.21322 96.2346 8.29696C96.1247 8.3807 96.047 8.49983 96.0148 8.6342C95.8875 9.06606 95.8262 9.51468 95.8328 9.96488H97.344Z"
  />
</svg>
